<?xml version="1.0" encoding="UTF-8" standalone="no"?>
<svg
   version="1.0"
   width="720"
   height="504"
   viewBox="-2100 -1470 4200 2940"
   id="svg936"
   sodipodi:docname="Flag_of_Brazil.svg"
   inkscape:export-filename="/Users/iaco/Desktop/Flag_of_Brazil-8K.png"
   inkscape:export-xdpi="822.79999"
   inkscape:export-ydpi="822.79999"
   inkscape:version="1.1.1 (c3084ef, 2021-09-22)"
   xmlns:inkscape="http://www.inkscape.org/namespaces/inkscape"
   xmlns:sodipodi="http://sodipodi.sourceforge.net/DTD/sodipodi-0.dtd"
   xmlns:xlink="http://www.w3.org/1999/xlink"
   xmlns="http://www.w3.org/2000/svg"
   xmlns:svg="http://www.w3.org/2000/svg">
  <sodipodi:namedview
     id="namedview938"
     pagecolor="#ffffff"
     bordercolor="#666666"
     borderopacity="1.0"
     inkscape:pageshadow="2"
     inkscape:pageopacity="0.0"
     inkscape:pagecheckerboard="0"
     showgrid="false"
     inkscape:zoom="1.0611289"
     inkscape:cx="324.65424"
     inkscape:cy="288.84333"
     inkscape:window-width="1440"
     inkscape:window-height="789"
     inkscape:window-x="0"
     inkscape:window-y="25"
     inkscape:window-maximized="1"
     inkscape:current-layer="svg936" />
  <defs
     id="defs864">
    <path
       id="D"
       d="M -31.5,0 h 33 a 30 30 0 0 0 30,-30 v -10 a 30 30 0 0 0 -30,-30 H -31.5 z M -18.5,-13 h 19 a 19 19 0 0 0 19,-19 v -6 a 19 19 0 0 0 -19,-19 H -18.5 z"
       fill-rule="evenodd" />
    <path
       id="E"
       d="M 0,0 h 63 v -13 H 12 v -18 h 40 v -12 h -40 v -14 H 60 v -13 H 0 z"
       transform="translate(-31.5)" />
    <path
       id="e"
       d="M -26.25,0 h 52.5 v -12 h -40.5 v -16 h 33 v -12 h -33 v -11 H 25 v -12 H -26.25 z" />
    <g
       id="G">
      <clipPath
         id="gcut">
        <path
           d="M -31.5,0 v -70 h 63 v 70 z M 0,-47 v 12 h 31.5 v -12 z"
           id="path827" />
      </clipPath>
      <use
         xlink:href="#O"
         clip-path="url(#gcut)"
         id="use830" />
      <rect
         x="5"
         y="-35"
         width="26.5"
         height="10"
         id="rect832" />
      <rect
         x="21.5"
         y="-35"
         width="10"
         height="35"
         id="rect834" />
    </g>
    <path
       id="M"
       d="M -31.5,0 h 12 v -48 l 14,48 h 11 l 14,-48 V 0 h 12 V -70 h -17.5 l -14,48 l -14,-48 H -31.5 z" />
    <path
       id="O"
       d="M 0,0 a 31.5 35 0 0 0 0,-70 a 31.5 35 0 0 0 0,70 M 0,-13 a 18.5 22 0 0 0 0,-44 a 18.5 22 0 0 0 0,44"
       fill-rule="evenodd" />
    <path
       id="P"
       d="M -31.5,0 h 13 v -26 h 28 a 22 22 0 0 0 0,-44 h -40 z M -18.5,-39 h 27 a 9 9 0 0 0 0,-18 h -27 z"
       fill-rule="evenodd" />
    <g
       id="R">
      <use
         xlink:href="#P"
         id="use840" />
      <path
         d="M 28,0 c 0,-10 0,-32 -15,-32 h -19 c 22,0 22,22 22,32"
         id="path842" />
    </g>
    <path
       id="S"
       d="M -15.75,-22 C -15.75,-15 -9,-11.5 1,-11.5 C 11,-11.5 15.74,-14.75 15.75,-19.25 C 15.75,-33.5 -31,-24.5 -30.75,-49.5 C -30.5,-71 -6,-70 3,-70 C 12,-70 29,-66 28.75,-48.75 L 13.5,-48.75 C 13.5,-56.25 6.5,-59 -1.5,-59 C -9.25,-59 -14.75,-57.75 -14.75,-50.5 C -15,-38.75 31.5,-46.5 31.5,-21.75 C 31.5,-3.5 13.5,0 0,0 C -11.5,0 -31.55,-4.5 -31.5,-22 z" />
    <g
       id="star"
       fill="#fff">
      <g
         id="c">
        <path
           id="t"
           d="M 0,-1 v 1 h .5"
           transform="rotate(18 0,-1)" />
        <use
           xlink:href="#t"
           transform="scale(-1,1)"
           id="use847" />
      </g>
      <use
         xlink:href="#c"
         transform="rotate(72)"
         id="use850" />
      <use
         xlink:href="#c"
         transform="rotate(-72)"
         id="use852" />
      <use
         xlink:href="#c"
         transform="rotate(144)"
         id="use854" />
      <use
         xlink:href="#c"
         transform="rotate(-144)"
         id="use856" />
    </g>
    <use
       id="star1"
       xlink:href="#star"
       transform="scale(31.5)" />
    <use
       id="star2"
       xlink:href="#star"
       transform="scale(26.25)" />
    <use
       id="star3"
       xlink:href="#star"
       transform="scale(21)" />
    <use
       id="star4"
       xlink:href="#star"
       transform="scale(15)" />
    <use
       id="star5"
       xlink:href="#star"
       transform="scale(10.5)" />
  </defs>
  <rect
     x="-50%"
     y="-50%"
     width="100%"
     height="100%"
     fill="#009b3a"
     id="rect866" />
  <path
     d="M -1743,0 0,1113 1743,0 0,-1113 z"
     fill="#fedf00"
     id="path868" />
  <circle
     r="735"
     fill="#002776"
     id="circle870"
     cx="0"
     cy="0"
     transform="rotate(-30)" />
  <clipPath
     id="band">
    <circle
       r="735"
       id="circle872" />
  </clipPath>
  <path
     d="m -2205,1470 a 1785,1785 0 0 1 3570,0 h -105 a 1680,1680 0 1 0 -3360,0 z"
     clip-path="url(#band)"
     fill="#ffffff"
     id="path875"
     transform="rotate(-30)" />
  <use
     id="αCMi"
     xlink:href="#star1"
     x="-600"
     y="-132"
     transform="rotate(-30)"
     width="100%"
     height="100%" />
  <use
     id="αCMa"
     xlink:href="#star1"
     x="-535"
     y="177"
     transform="rotate(-30)"
     width="100%"
     height="100%" />
  <use
     id="βCMa"
     xlink:href="#star2"
     x="-625"
     y="243"
     transform="rotate(-30)"
     width="100%"
     height="100%" />
  <use
     id="γCMa"
     xlink:href="#star4"
     x="-463"
     y="132"
     transform="rotate(-30)"
     width="100%"
     height="100%" />
  <use
     id="δCMa"
     xlink:href="#star2"
     x="-382"
     y="250"
     transform="rotate(-30)"
     width="100%"
     height="100%" />
  <use
     id="εCMa"
     xlink:href="#star3"
     x="-404"
     y="323"
     transform="rotate(-30)"
     width="100%"
     height="100%" />
  <use
     id="αVir"
     xlink:href="#star1"
     x="228"
     y="-228"
     transform="rotate(-30)"
     width="100%"
     height="100%" />
  <use
     id="αSco"
     xlink:href="#star1"
     x="515"
     y="258"
     transform="rotate(-30)"
     width="100%"
     height="100%" />
  <use
     id="βSco"
     xlink:href="#star3"
     x="617"
     y="265"
     transform="rotate(-30)"
     width="100%"
     height="100%" />
  <use
     id="εSco"
     xlink:href="#star2"
     x="545"
     y="323"
     transform="rotate(-30)"
     width="100%"
     height="100%" />
  <use
     id="θSco"
     xlink:href="#star2"
     x="368"
     y="477"
     transform="rotate(-30)"
     width="100%"
     height="100%" />
  <use
     id="ιSco"
     xlink:href="#star3"
     x="367"
     y="551"
     transform="rotate(-30)"
     width="100%"
     height="100%" />
  <use
     id="κSco"
     xlink:href="#star3"
     x="441"
     y="419"
     transform="rotate(-30)"
     width="100%"
     height="100%" />
  <use
     id="λSco"
     xlink:href="#star2"
     x="500"
     y="382"
     transform="rotate(-30)"
     width="100%"
     height="100%" />
  <use
     id="μSco"
     xlink:href="#star3"
     x="365"
     y="405"
     transform="rotate(-30)"
     width="100%"
     height="100%" />
  <use
     id="αHya"
     xlink:href="#star2"
     x="-280"
     y="30"
     transform="rotate(-30)"
     width="100%"
     height="100%" />
  <use
     id="γHya"
     xlink:href="#star3"
     x="200"
     y="-37"
     transform="rotate(-30)"
     width="100%"
     height="100%" />
  <use
     id="αCru"
     xlink:href="#star1"
     y="330"
     transform="rotate(-30)"
     x="0"
     width="100%"
     height="100%" />
  <use
     id="βCru"
     xlink:href="#star2"
     x="85"
     y="184"
     transform="rotate(-30)"
     width="100%"
     height="100%" />
  <use
     id="γCru"
     xlink:href="#star2"
     y="118"
     transform="rotate(-30)"
     x="0"
     width="100%"
     height="100%" />
  <use
     id="δCru"
     xlink:href="#star3"
     x="-74"
     y="184"
     transform="rotate(-30)"
     width="100%"
     height="100%" />
  <use
     id="εCru"
     xlink:href="#star4"
     x="-37"
     y="235"
     transform="rotate(-30)"
     width="100%"
     height="100%" />
  <use
     id="αTrA"
     xlink:href="#star2"
     x="220"
     y="495"
     transform="rotate(-30)"
     width="100%"
     height="100%" />
  <use
     id="βTrA"
     xlink:href="#star3"
     x="283"
     y="430"
     transform="rotate(-30)"
     width="100%"
     height="100%" />
  <use
     id="γTrA"
     xlink:href="#star3"
     x="162"
     y="412"
     transform="rotate(-30)"
     width="100%"
     height="100%" />
  <use
     id="αCar"
     xlink:href="#star1"
     x="-295"
     y="390"
     transform="rotate(-30)"
     width="100%"
     height="100%" />
  <use
     id="σOct"
     xlink:href="#star5"
     y="575"
     transform="rotate(-30)"
     x="0"
     width="100%"
     height="100%" />
  <g
     aria-label="AMOR, ORDEM E PROGRESSO"
     id="text1286-4"
     style="font-size:233.333px;fill:#009b3a;stroke-width:5.83333"
     transform="matrix(0.40357384,-0.10813728,0.10813728,0.40357384,-124.72793,-160.41613)">
    <path
       d="m -1325.5132,308.5054 -34.0147,13.74286 -27.7337,-29.7138 -61.9029,25.01034 1.4307,40.34104 -33.1696,13.40139 -2.2503,-179.2325 33.064,-13.35877 z m -82.3258,-38.00845 -44.5563,-48.84468 2.3019,65.91655 z"
       style="-inkscape-font-specification:'Arial Bold'"
       id="path8240-5" />
    <path
       d="m -1307.8597,301.19526 -57.1257,-156.95167 47.4281,-17.2624 67.4452,96.69593 -10.81,-117.30951 47.5353,-17.301414 57.1257,156.951674 -29.4419,10.71597 -44.9679,-123.54858 13.8132,134.88798 -30.5124,11.10564 -76.0158,-112.24815 44.9681,123.5486 z"
       style="-inkscape-font-specification:'Arial Bold'"
       id="path8242-7" />
    <path
       d="m -1156.0056,160.19956 q -7.0344,-24.53218 -4.4703,-43.28305 1.9588,-13.83627 8.5824,-26.284175 6.7331,-12.479302 16.6632,-20.423204 13.1827,-10.65442 32.7865,-16.275705 35.484,-10.174883 63.0428,5.745979 27.6684,15.889457 38.9111,55.097095 11.14853,38.87911 -3.6767,66.9533 -14.8562,27.96469 -50.2307,38.10815 -35.8126,10.2691 -63.199,-5.46414 -27.418,-15.84276 -38.4093,-54.17425 z m 33.0892,-10.67341 q 7.8194,27.27015 24.4652,37.7866 16.6143,10.40694 35.9991,4.84842 19.3849,-5.5585 27.7721,-23.01599 8.4655,-17.59845 0.4575,-45.52568 -7.9138,-27.59868 -23.9645,-37.693143 -15.9412,-10.125881 -35.9831,-4.378948 -20.0419,5.746928 -28.351,23.063481 -8.3406,17.20707 -0.3953,44.91526 z"
       style="-inkscape-font-specification:'Arial Bold'"
       id="path8244-6" />
    <path
       d="M -951.51268,185.51429 -994.7418,24.18106 -926.18066,5.8101608 q 25.86175,-6.929636 38.70655,-5.65335213 12.92537,1.13676653 22.94684,10.36459133 10.02147,9.227826 13.85489,23.534325 4.86549,18.158246 -2.62469,32.903963 -7.51965,14.635665 -27.93364,23.408211 12.21612,3.331969 21.01491,8.877073 8.90881,5.515618 25.61654,21.208418 l 28.13246,26.19597 -38.95769,10.43869 -32.95731,-28.79555 q -17.58812,-15.45694 -23.50767,-19.06065 -5.94906,-3.71372 -11.59322,-4.0886 -5.67364,-0.48492 -16.89874,2.5228 l -6.60299,1.76927 18.04654,67.35058 z m 7.62811,-101.830631 24.10095,-6.457828 q 23.44065,-6.280905 28.74251,-9.824658 5.30187,-3.543752 7.3059,-9.270584 2.00405,-5.726836 0.0579,-12.990133 -2.1821,-8.143699 -7.91106,-11.916435 -5.64837,-3.912276 -13.92583,-3.109755 -4.10924,0.511311 -23.91822,5.819115 l -25.42157,6.811684 z"
       style="-inkscape-font-specification:'Arial Bold'"
       id="path8246-7" />
    <path
       d="m -799.55434,95.766062 30.85058,-8.555618 6.11985,22.067486 q 3.71455,13.39422 3.54028,21.71876 -0.14381,8.43437 -4.9163,16.37889 -4.66272,7.91409 -13.56935,14.16756 l -9.57023,-11.06088 q 8.47949,-5.66205 10.93997,-12.13781 2.46048,-6.47572 0.0921,-15.86862 l -14.93124,4.1408 z"
       style="-inkscape-font-specification:'Arial Bold'"
       id="path8248-7" />
    <path
       d="m -671.85817,37.305046 q -4.43164,-25.133077 0.0787,-43.5132002 3.39424,-13.5557428 11.28278,-25.2430878 8.00071,-11.707128 18.70672,-18.569543 14.22409,-9.218088 34.30811,-12.759448 36.35321,-6.410043 62.09685,12.30428 25.85585,18.694549 32.93856,58.8625921 7.02336,39.8314409 -10.65487,66.2022219 -17.69802,26.258589 -53.93903,32.648849 -36.6898,6.4694 -62.28167,-12.040314 -25.61166,-18.621915 -32.5361,-57.89235 z m 34.02353,-7.156163 q 4.92624,27.938109 20.38154,40.136896 15.4355,12.086587 35.29512,8.5848 19.85963,-3.501787 30.02578,-19.986949 10.25858,-16.617146 5.21363,-45.228463 -4.98559,-28.274712 -19.89316,-39.99163 -14.79537,-11.736702 -35.3282,-8.11621 -20.53282,3.62049 -30.60656,19.973667 -10.09352,16.2409759 -5.08815,44.627889 z"
       style="-inkscape-font-specification:'Arial Bold'"
       id="path8250-0" />
    <path
       d="m -472.0129,90.117503 -23.24531,-165.399028 70.28894,-9.878467 q 26.51348,-3.726226 39.10702,-0.894059 12.69049,2.703495 21.51267,13.083846 8.82218,10.380354 10.8835,25.047389 2.61628,18.615852 -6.61511,32.338834 -9.24723,13.610158 -30.57816,19.8294753 11.71899,4.795905 19.7764,11.3719787 8.17024,6.560218 22.84094,24.172243 l 24.73029,29.429201 -39.93947,5.613126 -29.20235,-32.597402 q -15.57329,-17.485175 -21.00955,-21.783438 -5.45212,-4.411086 -11.00851,-5.471014 -5.57226,-1.172753 -17.08024,0.444589 l -6.76939,0.951377 9.70405,69.047887 z m 19.9813,-100.142011 24.7083,-3.472525 q 24.03138,-3.377392 29.7256,-6.248594 5.69423,-2.871206 8.38126,-8.311121 2.68702,-5.439916 1.6405,-12.886257 -1.17337,-8.348926 -6.39983,-12.791726 -5.12949,-4.571479 -13.44306,-4.783706 -4.14092,0.0067 -24.44912,2.860841 l -26.06218,3.662802 z"
       style="-inkscape-font-specification:'Arial Bold'"
       id="path8252-2" />
    <path
       d="m -314.30327,-98.639117 61.29962,-6.442853 q 20.73537,-2.17938 31.94639,-0.15003 15.06929,2.76942 26.6488,12.664644 11.57953,9.895233 18.6975,25.300021 7.10607,15.29148 9.55935,38.632926 2.15556,20.5087456 -1.3832,35.888001 -4.32648,18.784288 -14.7049,31.216512 -7.83152,9.415104 -22.17468,15.734138 -10.735,4.679646 -29.31751,6.632746 l -63.11255,6.633396 z m 36.49263,24.575256 11.56379,110.022061 25.04107,-2.631921 q 14.05018,-1.476734 20.1154,-3.718051 7.94381,-2.897001 12.75718,-8.328976 4.9267,-5.443883 7.15884,-16.9053449 2.22023,-11.5747621 0.19568,-30.8371201 -2.02455,-19.262358 -6.50752,-29.216112 -4.48297,-9.953753 -11.20897,-15.089366 -6.726,-5.135614 -16.34494,-6.186698 -7.19181,-0.847945 -27.70056,1.307612 z"
       style="-inkscape-font-specification:'Arial Bold'"
       id="path8254-1" />
    <path
       d="m -129.18087,50.308191 -8.74138,-166.795601 123.674483,-6.4815 1.478762,28.216443 -89.996805,4.71654 1.93789,36.97719 83.739128,-4.388582 1.472798,28.102668 -83.739131,4.388582 2.379143,45.396618 93.18253,-4.88349 1.4727984,28.102669 z"
       style="-inkscape-font-specification:'Arial Bold'"
       id="path8256-1" />
    <path
       d="m 32.176837,43.145813 -2.914979,-166.999053 50.464245,-0.88086 32.289717,113.38586 27.9712,-114.43772 50.57815,-0.88284 2.91498,166.999053 L 162.1536,40.87706 159.85899,-90.580585 129.0044,41.45568 96.538684,42.022372 61.208799,-88.858645 63.5034,42.599005 Z"
       style="-inkscape-font-specification:'Arial Bold'"
       id="path8258-4" />
    <path
       d="m 303.07438,19.095284 5.80253,-110.718969 82.09518,4.30242 -0.9816,18.730083 -59.73991,-3.130836 -1.28638,24.545475 55.58607,2.913143 -0.97765,18.654561 -55.58607,-2.913141 -1.57927,30.1342912 61.85461,3.2416624 -0.97766,18.6545614 z"
       style="-inkscape-font-specification:'Arial Bold';stroke-width:3.87217"
       id="path8260-3" />
    <path
       d="m 494.31351,62.866203 14.55715,-166.388923 53.91182,4.716689 q 30.64462,2.681049 39.73305,5.992269 13.97314,4.99661 22.5183,18.438986 8.5551,13.32888 6.81738,33.19113 -1.34053,15.322309 -7.8155,25.277616 -6.47498,9.955307 -15.62715,15.21606302 Q 599.37981,4.467222 590.35812,5.6221706 578.11873,6.9530774 555.30553,4.9571793 l -21.90524,-1.9164587 -5.4912,62.7647134 z m 45.69013,-135.302038 -4.13082,47.215409 18.38678,1.608635 q 19.86225,1.737721 26.78704,-0.286886 6.92481,-2.024606 11.15684,-7.258352 4.34551,-5.223816 4.99094,-12.601223 0.79439,-9.079887 -4.02369,-15.448515 -4.81809,-6.36863 -12.8609,-8.559059 -5.91611,-1.661268 -24.0759,-3.250042 z"
       style="-inkscape-font-specification:'Arial Bold'"
       id="path8262-7" />
    <path
       d="m 640.19886,78.522193 21.80108,-165.595579 70.37248,9.264711 q 26.54498,3.494713 37.92363,9.589351 11.50648,5.996556 17.23377,18.357004 5.72729,12.36045 3.79404,27.044917 -2.45373,18.6379722 -15.01669,29.3948746 -12.54808,10.6439454 -34.76527,10.9366254 10.01113,7.753244 16.01814,16.2434 6.11995,8.505027 15.55047,29.397087 L 789.07674,98.122338 749.08983,92.85796 729.66081,53.642121 Q 719.32665,32.631094 715.23676,27.03638 q -4.07501,-5.707671 -9.14607,-8.213933 -5.0562,-2.619219 -16.57785,-4.136073 l -6.77744,-0.892269 -9.10113,69.129942 z m 46.01638,-91.160124 24.73768,3.2567766 q 24.05992,3.1675497 30.31435,1.9224869 6.25441,-1.2450658 10.29748,-5.7690565 4.04305,-4.523995 5.02454,-11.979182 1.10046,-8.35885 -2.74865,-14.036781 -3.72125,-5.776013 -11.67573,-8.202223 -3.99212,-1.100149 -24.32444,-3.77695 l -26.09318,-3.435231 z"
       style="-inkscape-font-specification:'Arial Bold'"
       id="path8264-4" />
    <path
       d="m 808.82909,23.213209 q 3.33112,-25.3024621 13.15969,-41.475623 7.31344,-11.907677 18.35131,-20.681968 11.15082,-8.759421 23.42489,-12.084867 16.33769,-4.514184 36.55707,-1.852247 36.59821,4.818237 55.52285,30.407677 19.03761,25.6043118 13.71373,66.043069 -5.27924,40.099884 -30.06912,59.93419 -24.77501,19.72136 -61.26025,14.91799 -36.93709,-4.86286 -55.77852,-30.211512 -18.82656,-25.461611 -13.62165,-64.996709 z m 34.60072,3.40612 q -3.70291,28.126397 7.36882,44.408085 11.0866,16.168729 31.08007,18.800918 19.99345,2.632189 34.64627,-10.032967 14.78066,-12.76324 18.5728,-41.567382 3.74752,-28.4652697 -6.94674,-44.1226858 -10.58129,-15.6425432 -31.25249,-18.3639592 -20.67122,-2.721416 -35.19622,9.845652 -14.51012,12.454111 -18.27251,41.032339 z"
       style="-inkscape-font-specification:'Arial Bold'"
       id="path8266-4" />
    <path
       d="m 1059.7508,89.949887 6.5695,-27.363689 70.6803,16.96884 -15.5326,64.697962 q -12.6967,7.49706 -34.1409,10.4335 -21.3065,2.85228 -41.3584,-1.96178 -25.4803,-6.11728 -41.871,-21.30063 -16.36433,-15.29415 -21.13094,-37.411857 -4.74003,-22.228494 0.87198,-45.603951 6.09062,-25.36958 21.46016,-42.5358568 15.3694,-17.1662752 38.3914,-22.7703222 17.5622,-4.337077 40.8268,1.248261 30.2442,7.2609747 44.1354,24.0704705 14.0288,16.7253335 13.5307,40.2739975 l -34.0334,-1.726375 q -0.5619,-12.7892 -8.4402,-21.945135 -7.7413,-9.240162 -21.9217,-12.64457 -21.4921,-5.1597968 -37.5036,5.408011 -15.9009,10.594395 -22.3373,37.404169 -6.9418,28.914666 2.425,46.512648 9.3934,17.48718 30.2208,22.4874 10.303,2.47351 21.5634,0.95879 11.3978,-1.5989 20.2034,-5.57766 l 4.947,-20.605877 z"
       style="-inkscape-font-specification:'Arial Bold'"
       id="path8268-3" />
    <path
       d="M 1130.9547,169.4521 1175.5901,8.5022132 1243.9884,27.47074 q 25.8002,7.155043 36.2198,14.773962 10.56,7.539585 14.5112,20.57683 3.9513,13.037258 -0.01,27.30976 -5.0237,18.115088 -18.9615,27.018848 -13.9074,8.79401 -35.949,5.99181 8.8347,9.07107 13.6017,18.31462 4.8767,9.27398 11.3078,31.27521 l 10.9443,36.84952 -38.8651,-10.77826 -13.7821,-41.5382 q -7.3094,-22.24476 -10.581,-28.35424 -3.241,-6.21924 -7.9139,-9.40687 -4.6422,-3.2974 -15.8407,-6.40301 l -6.5874,-1.82681 -18.6335,67.19053 z m 58.2555,-83.868692 24.0437,6.667895 q 23.3849,6.485201 29.7518,6.122701 6.3669,-0.36249 11.0002,-4.279769 4.6333,-3.91727 6.6429,-11.163308 2.253,-8.124345 -0.7684,-14.282714 -2.8812,-6.237715 -10.4206,-9.747359 -3.8001,-1.64502 -23.5621,-7.125494 l -25.361,-7.033258 z"
       style="-inkscape-font-specification:'Arial Bold'"
       id="path8270-0" />
    <path
       d="m 1291.5233,216.33659 48.8333,-159.726313 118.4328,36.208537 -8.2611,27.020536 -86.1825,-26.348617 -10.8258,35.409987 80.1899,24.51653 -8.2277,26.91161 -80.1899,-24.51654 -13.291,43.47257 89.2332,27.28132 -8.2277,26.91161 z"
       style="-inkscape-font-specification:'Arial Bold'"
       id="path8272-7" />
    <path
       d="m 1440.8121,205.68778 31.6183,9.33395 q -3.4421,16.42687 2.0009,26.98185 5.5487,10.59762 19.8097,16.35938 15.1058,6.10319 25.2724,2.83798 10.3151,-3.32819 13.7719,-11.88472 2.2193,-5.49306 0.4813,-10.619 -1.5898,-5.18893 -8.4657,-11.28478 -4.7251,-4.12077 -22.3045,-16.8758 -22.6233,-16.39027 -29.0937,-29.57222 -9.0968,-18.54372 -1.6704,-36.92439 4.7802,-11.83124 15.575,-19.38911 10.9434,-7.62084 25.6908,-7.92937 14.853,-0.26626 32.7053,6.947 29.1557,11.7796 38.6748,30.49404 9.6248,18.75713 1.7429,40.39433 L 1554.798,183.297 q 2.8157,-12.74777 -1.7478,-20.61275 -4.4155,-7.92795 -17.62,-13.2629 -13.6271,-5.5057 -23.6005,-3.0226 -6.4159,1.58569 -8.8488,7.60693 -2.2193,5.49307 0.8496,11.27952 3.9095,7.35494 24.5502,21.96121 20.6408,14.60622 29.1738,24.81224 8.6815,10.14304 10.7539,22.65388 2.2206,12.44789 -3.7119,27.13131 -5.3776,13.31017 -17.467,21.94248 -12.0893,8.63241 -27.9154,8.87371 -15.7835,0.13571 -35.9599,-8.01609 -29.3667,-11.86496 -39.6436,-31.74565 -10.2342,-19.98634 -2.7983,-47.21049 z"
       style="-inkscape-font-specification:'Arial Bold'"
       id="path8274-9" />
    <path
       d="m 1583.674,257.76642 31.2732,10.4317 q -4.0132,16.29679 1.058,27.03525 5.1755,10.78483 19.2266,17.04076 14.8837,6.62669 25.1581,3.71824 10.4249,-2.96613 14.1783,-11.39679 2.4098,-5.41226 0.8517,-10.59576 -1.4079,-5.24127 -8.0667,-11.57333 -4.5784,-4.28319 -21.7019,-17.6439 -22.0375,-17.16989 -28.044,-30.56963 -8.4441,-18.84989 -0.3809,-36.96018 5.1903,-11.65722 16.2424,-18.83376 11.2027,-7.23424 25.9518,-7.02792 14.8533,0.25227 32.443,8.08417 28.7267,12.78992 37.5869,31.82518 8.9644,19.08161 0.3323,40.43057 l -31.4109,-12.36369 q 3.259,-12.64174 -1.0274,-20.66121 -4.136,-8.07719 -17.1464,-13.86974 -13.4268,-5.97794 -23.4807,-3.84442 -6.4673,1.36083 -9.1088,7.2935 -2.4098,5.41225 0.4553,11.30228 3.6506,7.48691 23.7689,22.80462 20.1186,15.31773 28.2901,25.8153 8.3223,10.43982 9.9566,23.01538 1.7851,12.51781 -4.6563,26.98523 -5.8389,13.11435 -18.2222,21.31953 -12.3832,8.20525 -28.2079,7.89413 -15.7787,-0.41522 -35.6584,-9.26626 -28.9348,-12.8826 -38.5115,-33.10984 -9.5304,-20.33133 -1.1489,-47.27939 z"
       style="-inkscape-font-specification:'Arial Bold'"
       id="path8276-9" />
    <path
       d="m 1732.1511,293.88721 q 9.1457,-23.82567 22.4782,-37.25752 9.8915,-9.87141 22.6725,-15.82656 12.8875,-5.91426 25.5986,-6.28248 16.9402,-0.57555 35.9796,6.73302 34.4622,13.22875 46.8901,42.52903 12.5344,29.34111 -2.0824,67.41972 -14.4948,37.75949 -43.2299,51.25868 -28.6942,13.39286 -63.05,0.20486 -34.7813,-13.35128 -47.1846,-42.398 -12.3625,-29.15306 1.9279,-66.38075 z m 32.8495,11.38941 q -10.1667,26.48484 -3.2015,44.9013 7.0055,18.31011 25.8322,25.53695 18.8266,7.22684 36.0312,-1.66773 17.3518,-8.96011 27.7634,-36.08316 10.2891,-26.80391 3.5453,-44.52526 -6.6372,-17.68047 -26.1019,-25.15231 -19.4649,-7.47182 -36.5223,1.35723 -17.0165,8.7227 -27.3464,35.63299 z"
       style="-inkscape-font-specification:'Arial Bold'"
       id="path8278-9" />
  </g>
</svg>
